<?xml version="1.0" standalone="no"?><!DOCTYPE svg PUBLIC "-//W3C//DTD SVG 1.1//EN" "http://www.w3.org/Graphics/SVG/1.1/DTD/svg11.dtd"><svg t="1612678580845" class="icon" viewBox="0 0 1024 1024" version="1.1" xmlns="http://www.w3.org/2000/svg" p-id="23047" xmlns:xlink="http://www.w3.org/1999/xlink" width="48" height="48"><defs><style type="text/css"></style></defs><path d="M798.845519 200.594621h-49.823756l-0.098237-55.17667c0-65.735144-53.741995-119.210056-119.841436-119.210056H394.871861c-66.052368 0-119.794363 53.815673-119.794364 119.939673l0.608868 54.447053h-49.823756c-92.400456 0-174.971034 61.623499-174.971033 154.048515v475.501738c0 92.423993 75.127048 167.647231 167.527504 167.647231H805.608549c92.352361 0 167.502945-75.223239 167.502945-167.647231V354.642113c-0.001023-92.447529-81.914638-154.047492-174.265975-154.047492z m-448.421986-49.824779c0-27.247574 22.6253-49.824779 49.825802-49.824779h224.208435c27.688619 0 49.825802 22.528086 49.825802 49.824779v49.823756H350.423533v-49.823756z" fill="#4382BC" p-id="23048"></path><path d="M250.771929 275.357372h523.160177c68.800969 0 124.56297 55.759955 124.56297 124.561947V798.516526c0 68.800969-55.760978 124.563994-124.56297 124.563993H250.771929c-68.798922 0-124.561947-55.762001-124.561947-124.563993V399.919319c0.001023-68.801992 55.763025-124.561947 124.561947-124.561947z" fill="#D8E7F4" p-id="23049"></path><path d="M663.263587 526.888082h-66.490343v-66.488297c0-19.487843-15.959483-35.447327-35.470863-35.447327H487.391021c-19.509333 0-35.470863 15.959483-35.470863 35.447327v66.488297h-66.488297c-19.511379 0-35.470863 15.96153-35.470863 35.519981v73.836659c0 19.536962 15.959483 35.496445 35.470863 35.496445h66.488297v66.51388c0 19.48682 15.96153 35.446303 35.470863 35.446303h73.91136c19.511379 0 35.470863-15.959483 35.470863-35.446303v-66.51388h66.490343c19.48682 0 35.446303-15.959483 35.446304-35.496445v-73.836659c0-19.559475-15.959483-35.519981-35.446304-35.519981z" fill="#E68C49" p-id="23050"></path></svg>