<?xml version="1.0" standalone="no"?><!DOCTYPE svg PUBLIC "-//W3C//DTD SVG 1.1//EN" "http://www.w3.org/Graphics/SVG/1.1/DTD/svg11.dtd"><svg t="1612601471003" class="icon" viewBox="0 0 1024 1024" version="1.1" xmlns="http://www.w3.org/2000/svg" p-id="5552" xmlns:xlink="http://www.w3.org/1999/xlink" width="48" height="48"><defs><style type="text/css"></style></defs><path d="M135.7 279h645.1c39.6 0 71.7 32.1 71.7 71.7V745c0 118.8-96.3 215-215 215H279c-118.8 0-215-96.3-215-215V350.7c0-39.6 32.1-71.7 71.7-71.7z m0 71.7V745c0 79.2 64.2 143.4 143.4 143.4h358.4c79.2 0 143.4-64.2 143.4-143.4V350.7H135.7z" fill="#4C4C4C" p-id="5553"></path><path d="M960 458.2v215c0 39.6-32.1 71.7-71.7 71.7H780.8V386.6h107.5c39.6 0 71.7 32.1 71.7 71.6z m-107.5 0v215h35.8v-215h-35.8z" fill="#4C4C4C" p-id="5554"></path><path d="M279 64c19.8 0 35.8 16 35.8 35.8v107.5c0 19.8-16 35.8-35.8 35.8-19.8 0-35.8-16-35.8-35.8V99.8c0-19.8 16-35.8 35.8-35.8zM458.2 64C478 64 494 80 494 99.8v107.5c0 19.8-16 35.8-35.8 35.8-19.8 0-35.8-16-35.8-35.8V99.8c0-19.8 16-35.8 35.8-35.8zM637.4 64c19.8 0 35.8 16 35.8 35.8v107.5c0 19.8-16 35.8-35.8 35.8s-35.8-16-35.8-35.8V99.8c0-19.8 16-35.8 35.8-35.8z" fill="#4C4C4C" p-id="5555"></path><path d="M261.1 601.6c0-19.8 16-35.8 35.8-35.8 19.8 0 35.8 16 35.8 35.8v71.2c0.3 16.3 2.3 18.3 17.7 18.3h71.5c19.8 0 35.8 16 35.8 35.8 0 19.8-16 35.8-35.8 35.8h-71.5c-54.9 0-88.5-33.7-89.4-89.4v-71.7z" fill="#FF9F2C" p-id="5556"></path></svg>