<?xml version="1.0" standalone="no"?><!DOCTYPE svg PUBLIC "-//W3C//DTD SVG 1.1//EN" "http://www.w3.org/Graphics/SVG/1.1/DTD/svg11.dtd"><svg t="1612450366058" class="icon" viewBox="0 0 1024 1024" version="1.1" xmlns="http://www.w3.org/2000/svg" p-id="12676" xmlns:xlink="http://www.w3.org/1999/xlink" width="48" height="48"><defs><style type="text/css"></style></defs><path d="M493.6 525.5c-1.6 6-2.9 11.7-3.4 16.6 0 0 1.1-6.2 3.4-16.6zM326.5 525.5c2.2 10.4 3.4 16.6 3.4 16.6-0.6-5-1.8-10.6-3.4-16.6z" fill="#272536" p-id="12677"></path><path d="M821.9 292.5c-31.8-21.2-97.1-27.3-136.6 26.2-0.1 0-0.1 0-0.1 0.1 12.2-36.6 19.4-69.9 16.9-94.2C691.8 123.8 593.8 64.7 513.6 64.7c-80.1 0-184.7 61.3-169.7 194.9 2.2 20.2 7.1 41.7 13.4 63.5-1-1.5-2-3.1-3.1-4.5-39.5-53.5-104.9-47.4-136.6-26.2-133.9 89.2-47.7 199.1 28.2 224 32.2 10.7 149.6 47.6 150.3 47.8-1.3-0.5-195.8-61.3-200.7-182-2.4-56.9 47.1-73.4 83.4-60.8 63.2 21.9 139.9 145.7 157.3 211.8-2.8-12.6-7.1-31.4-13.2-53.4 30.6 59.2 58.5 102 58.5 102S385.3 406 386.1 273.2c0.6-96.8 59.1-167.9 145.2-163.2 48 2.6 150.2 74.4 119 224.1C625.4 454.2 557 581.8 557 581.8s30-49.4 62.8-113.5c-7.7 26.8-13.2 50.1-16.4 64.9 17.4-66.1 94.1-189.8 157.3-211.8 36.3-12.6 85.8 3.8 83.5 60.8-4.9 120.7-199.4 181.6-200.7 182 0.7-0.2 118.1-37.1 150.3-47.8 75.7-24.8 161.9-134.7 28.1-223.9zM470.3 616z" fill="#272536" p-id="12678"></path><path d="M482.1 627s16.3-82.1 23.4-106.9C495.3 544 470.3 616 470.3 616l11.8 11zM419.3 581.3c-2.4-4.7-34.1-66.2-64.5-89.7 0 0 24.7 34.7 41.4 72.7 1.3 3 2.6 5.9 3.8 8.9 6.6 2.3 13 5 19.3 8.1zM604.6 644.6c-1 29 6.1 75.3 2.7 124.4-6.2 56.1-28.9 65.2-49.6 60.8 16.2-15.2 31.4-42.5 31.4-90.9 0-75.6-38.9-180-58.2-226.9 12.7 45.4 31.9 124.5 31.9 191.3 0 62.5-27.3 99.3-29.7 102.4 0 0.2-0.1 0.4-0.1 0.5 5.9 20-8.2 34.8-11.7 39.6-0.2 0.5-0.4 1.1-0.7 1.6 0.1 0.1 0.2 0.1 0.3 0.1 4.3 0 15.2-2.3 27.3-10.3 32.8 16.9 74.3-2.7 90.4-49.3 21.4-62-8.8-114.6-10.7-164.2-0.6-17.5 6.1-38.8 15.2-59.5 16.8-38 41.5-72.7 41.5-72.7-58.1 44.9-79.1 124.1-80 153.1z" fill="#272536" p-id="12679"></path><path d="M490 746.4c-0.2-70.3-42.1-132.7-104.7-155.6-67.5-24.7-150-2-200.8 57.3-43.4 50.6-57.6 108.5-31.2 171.5 27 64.6 76.9 102.5 146.8 108.1 103.2 8.4 190.2-76 189.9-181.3zM322.4 959c-78 0.8-129.7-37.9-165.7-99.3-39.4-67.2-32.3-135 7.3-199.3 52.7-85.4 167.6-119 253.5-72.8 64.2 34.5 126.4 126.1 109 211.6-3 14.4-9.3 28.4-15.3 42-8.4 18.7-13 37.9-13.2 58.3-0.2 20.4-5.2 26.8-24.9 31.1-41.4 9.1-82.8 18-124.4 26.5-9.6 1.9-19.6 1.5-26.3 1.9z" fill="#272536" p-id="12680"></path><path d="M287.5 754.9c-16.1 1.9-32.3 3.7-51.7 5.9 18.9 1.6 34.5 3 52.6 4.5-5.2 7.2-8.4 11.8-12.7 17.7 7.7-2.8 13.7-5 23.1-8.4-2.5 14.5-4.3 26.6-6.6 38.6-5.2 27-10.9 53.9-15.9 81-1.7 9.2-6.5 13.8-15.2 12.3-23.1-4.1-42-15.3-53.5-36.5-1.8-3.2-0.3-10.1 2.1-13.4 7.6-10.2 16.5-19.5 23.7-30.3-7.9 6.9-15.6 13.9-23.6 20.6-9.6 8-17.3 7.8-25.6-1.6-14.6-16.4-22.2-36.2-24.4-57.7-0.4-4 4.7-10.9 8.9-12.7 9.9-4.3 20.9-6.2 32.3-9.4-10.3 0-19.7-0.3-29 0.1-6.9 0.3-11.3-1.9-12.6-9.1-3.5-19.5 0.3-37.9 11.1-54.1 2.6-3.9 12.9-7 17-5 31.1 14.9 61.6 31.1 92.3 47 3.6 1.9 6.8 4.7 10.2 7-0.8 1.1-1.7 2.3-2.5 3.5zM258.1 659c-3.9-9-7.9-18-11.6-27.1-3.1-7.5-1.8-14.9 5.4-18.6 12.3-6.4 25-12.6 38.2-16.4 9.6-2.8 17.4 3.8 18 13.9 2.2 35.3 3.5 70.7 5 106.1 0.1 2.7-0.3 5.8-1.7 8-1.7 2.7-4.3 5.7-7.1 6.6-1.6 0.5-5.2-2.4-6.7-4.6-6.7-10.4-12.9-21.1-21.6-30.4 5.2 10.4 10.8 20.6 15.5 31.1 1.4 3.1 0.5 7.2 0.6 10.9-3.9 0-8.6 1.5-11.6-0.1-30.3-15.8-60.3-32.3-90.4-48.4-9.7-5.2-11-12.9-6.3-21.8 9.3-17.7 22.4-28.6 39.5-37.9 5.5-3.1 11.9 0.2 14.5 3.2 7.1 8.2 12.9 17.6 19.1 26.5 0.5-0.3 0.9-0.6 1.2-1zM359 886.2c-13.3-35.3-26.6-70.6-40.1-105.9-3.5-9.2 1-11.4 8.9-10.6 2.3 0.2 4.6 1.2 6.6 2.3 30.9 16.3 62.1 32.2 92.5 49.4 20.4 11.6 22.6 25.4 7.1 43.3-10 11.5-21.7 21.6-33.5 31.4-22.8 15-37.3 1.4-41.5-9.9zM474.5 758.4c-0.9 22.3-3.2 40.3-17.4 54.7-4.8 4.8-9.1 6.9-15.4 3.8-34.1-16.8-68.3-33.4-102.3-50.4-3-1.5-7.1-6.2-6.5-8.3 0.9-3.4 4.8-7.7 8.2-8.6 34.4-9.5 68.7-19.1 103.4-27.1 15.7-3.6 23.2 2.7 27.2 18.6 1.8 6.6 2.3 13.7 2.8 17.3zM449.5 713.7c-35.3 9-70.4 19.1-105.6 28.4-4.1 1.1-8.8-0.3-13.2-0.5 0.9-4.6 0.5-10.1 2.9-13.8 20.2-30.5 40.8-60.7 61.6-90.7 8.6-12.4 14.3-14 25.9-4.3 13.1 11 25.1 23.6 36 36.9 20.3 29.8 4.1 41-7.6 44zM316.4 616.7c0.3-17.2 7.8-24.9 24.9-23.9 11.2 0.7 22.7 2.9 33.3 6.6 15.7 5.4 22.4 22.5 13.7 36.6-18.9 30.4-38.9 60-58.8 89.8-1.6 2.5-3.9 3.7-8.5 5-4.1-8.5-4.9-96.8-4.6-114.1zM295.6 912.8c-13.6-5.7-16.2-11-13.5-25.6 6.6-34.8 13.1-69.6 20-104.4 0.5-2.5 2.9-4.7 4.5-7 2.6 1.7 6.7 2.9 7.6 5.3 13.2 34.1 26.4 68.2 38.6 102.7 4.7 13.4-0.4 21.7-13.8 26.6-8.1 3-37.7 4.8-43.4 2.4z" fill="#272536" p-id="12681"></path></svg>