<?xml version="1.0" standalone="no"?><!DOCTYPE svg PUBLIC "-//W3C//DTD SVG 1.1//EN" "http://www.w3.org/Graphics/SVG/1.1/DTD/svg11.dtd"><svg t="1612443785062" class="icon" viewBox="0 0 1047 1024" version="1.1" xmlns="http://www.w3.org/2000/svg" p-id="7328" xmlns:xlink="http://www.w3.org/1999/xlink" width="49.078125" height="48"><defs><style type="text/css"></style></defs><path d="M614.102 301.903c15.232 0 28.55-4.76 39.972-14.278a203.93 203.93 0 0 0 30.839-31.978c9.13-11.8 18.268-23.22 27.407-34.259 9.138-11.038 19.032-18.08 29.689-21.13 8.374-2.281 18.656-4.76 30.838-7.421 12.182-2.663 25.695-2.282 40.543 1.144 14.843 3.427 30.451 11.42 46.823 23.984 16.369 12.56 32.928 32.547 49.68 59.956 19.033 31.214 36.163 64.334 51.39 99.356 15.227 35.022 28.17 68.714 38.827 101.072 10.659 32.358 19.223 61.858 25.7 88.508 6.47 26.647 10.848 47.203 13.13 61.667 1.525 12.945 3.239 28.551 5.14 46.83a239.36 239.36 0 0 1-0.574 54.814c-2.28 18.276-7.42 35.02-15.414 50.252-7.996 15.23-21.132 26.268-39.399 33.116-19.796 6.86-37.689 7.804-53.68 2.859-15.989-4.95-30.642-14.466-43.968-28.552-13.32-14.085-25.695-31.403-37.111-51.961-11.427-20.559-22.083-42.639-31.98-66.244-9.898-23.601-22.27-42.253-37.117-55.959-14.85-13.703-30.077-24.365-45.684-31.977-15.606-7.613-30.833-12.564-45.679-14.845-14.849-2.288-27.222-3.427-37.117-3.427h-45.684c-19.795 0-41.682 0.193-65.664 0.575-23.984 0.375-48.538 0.564-73.665 0.564s-47.966-0.374-68.523-1.137c-41.878-0.761-76.135 6.661-102.782 22.268-26.651 15.608-46.065 32.553-58.247 50.82-6.086 9.137-11.42 19.614-15.989 31.411-4.568 11.8-9.704 24.363-15.417 37.687-5.712 13.323-12.943 27.215-21.701 41.683-8.751 14.464-20.362 28.553-34.831 42.256-14.464 13.706-29.5 22.654-45.112 26.84-15.608 4.188-30.452 4-44.542-0.573-14.08-4.57-26.455-13.325-37.111-26.267-10.662-12.942-17.513-29.312-20.557-49.106-3.806-22.845-3.996-50.063-0.573-81.66 3.425-31.592 9.52-65.097 18.271-100.5 8.757-35.401 19.61-71.375 32.548-107.92 12.943-36.546 27.033-71.186 42.259-103.926 15.227-32.739 30.071-59.195 44.54-79.372 14.464-20.174 28.362-35.784 41.681-46.828 13.325-11.037 26.27-18.46 38.834-22.265 12.558-3.808 24.554-5.714 35.975-5.714 23.601 0 42.824 4.759 57.669 14.278 14.849 9.514 27.979 23.792 39.399 42.825 7.619 12.944 18.657 24.744 33.12 35.403 14.47 10.663 28.171 16.37 41.115 17.132h182.732v-0.001z m-90.22 81.087c-10.659 0-19.606 3.614-26.836 10.845-7.238 7.233-10.853 16.18-10.853 26.837 0 10.662 3.615 19.605 10.853 26.842 7.231 7.23 16.177 10.847 26.836 10.847 10.658 0 19.795-3.616 27.407-10.847 7.615-7.238 11.42-16.18 11.42-26.842 0-10.658-3.805-19.604-11.42-26.837-7.613-7.229-16.75-10.845-27.407-10.845z m268.38-37.69c-6.85 0-12.755 2.472-17.705 7.423-4.944 4.95-7.423 10.851-7.423 17.703 0 7.613 2.48 13.89 7.423 18.843 4.95 4.948 10.855 7.42 17.705 7.42 6.849 0 12.751-2.472 17.703-7.42 4.947-4.952 7.424-11.23 7.424-18.843 0-6.852-2.477-12.754-7.424-17.703-4.952-4.95-10.854-7.423-17.703-7.423z m0 102.782c-6.85 0-12.755 2.479-17.705 7.426-4.944 4.945-7.423 10.85-7.423 17.7 0 7.614 2.48 13.897 7.423 18.848 4.95 4.945 10.855 7.422 17.705 7.422 6.849 0 12.751-2.479 17.703-7.422 4.947-4.95 7.424-11.234 7.424-18.848 0-6.85-2.477-12.753-7.424-17.7-4.952-4.947-10.854-7.426-17.703-7.426z m50.247-50.248c-6.849 0-12.747 2.473-17.7 7.422-4.951 4.951-7.42 10.85-7.42 17.705 0 6.85 2.469 12.752 7.42 17.697 4.953 4.952 10.851 7.422 17.7 7.422 7.617 0 13.898-2.471 18.846-7.422 4.946-4.945 7.423-10.847 7.423-17.697 0-6.856-2.477-12.755-7.423-17.705-4.95-4.949-11.229-7.422-18.846-7.422z m-101.639 0c-6.855 0-12.752 2.473-17.704 7.422-4.95 4.951-7.42 10.85-7.42 17.705 0 6.85 2.47 12.752 7.42 17.697 4.952 4.952 10.849 7.422 17.704 7.422 7.614 0 13.893-2.471 18.842-7.422 4.95-4.945 7.422-10.847 7.422-17.697 0-6.856-2.471-12.755-7.422-17.705-4.95-4.949-11.228-7.422-18.842-7.422zM295.473 349.87c0-12.944-6.474-19.415-19.414-19.415-5.33 0-9.9 1.712-13.705 5.14-3.806 3.426-5.709 8.18-5.709 14.275V492.62c0 6.092 1.901 10.855 5.709 14.28 3.806 3.424 8.375 5.138 13.705 5.138 12.941 0 19.414-6.471 19.414-19.417V349.87z m-90.224 52.535c-6.088 0-11.039 1.708-14.845 5.14-3.807 3.425-5.712 7.805-5.712 13.13 0 6.093 1.905 10.854 5.712 14.277 3.806 3.425 8.757 5.136 14.845 5.136h142.76c5.324 0 9.892-1.71 13.7-5.136 3.805-3.425 5.71-8.184 5.71-14.278 0-5.324-1.905-9.704-5.71-13.129-3.808-3.43-8.376-5.14-13.7-5.14h-142.76z m0 0" p-id="7329"></path></svg>