<?xml version="1.0" standalone="no"?><!DOCTYPE svg PUBLIC "-//W3C//DTD SVG 1.1//EN" "http://www.w3.org/Graphics/SVG/1.1/DTD/svg11.dtd"><svg t="1612450413246" class="icon" viewBox="0 0 1024 1024" version="1.1" xmlns="http://www.w3.org/2000/svg" p-id="14339" xmlns:xlink="http://www.w3.org/1999/xlink" width="48" height="48"><defs><style type="text/css"></style></defs><path d="M300.720633 240.876477h421.558832c15.798457-0.599941 28.497217-13.198711 29.097158-29.097159 0.599941-16.598379-12.398789-30.597012-29.097158-31.196953H300.720633c-15.798457 0.599941-28.497217 13.198711-29.097159 29.097158-0.499951 16.598379 12.498779 30.597012 29.097159 31.196954z" fill="#101D37" p-id="14340"></path><path d="M994.252905 570.944244c-0.09999-2.399766-0.399961-4.599551-0.999902-6.799336V180.682355C993.153012 80.8921 912.360902 0 812.570647 0H210.42945C110.639195 0 29.747095 80.8921 29.747095 180.682355v602.141197c0 78.592325 50.295088 145.485792 120.388243 170.383361v40.396055c-0.399961 2.499756-0.399961 4.999512 0 7.499268 2.099795 14.498584 15.598477 24.697588 30.097061 22.597793 2.499756 0.399961 4.999512 0.399961 7.499268 0 14.598574-2.099795 24.697588-15.498486 22.597793-30.097061v-30.09706h602.141197v30.09706c-0.399961 2.499756-0.399961 4.999512 0 7.499268 2.099795 14.598574 15.498486 24.697588 30.097061 22.597793 2.499756 0.399961 4.999512 0.399961 7.499268 0 14.598574-2.099795 24.697588-15.498486 22.597793-30.097061v-40.396055c70.193145-24.797578 120.488234-91.691046 120.488233-170.383361V579.943365c0.799922-2.899717 1.199883-5.899424 1.099893-8.999121zM210.42945 60.194122h602.141197c66.493506 0.09999 120.288253 53.994727 120.388244 120.388243V541.947075H89.941217V180.682355c0.09999-66.493506 53.994727-120.388243 120.488233-120.488233z m602.141197 843.017674H210.42945c-66.493506-0.09999-120.288253-53.994727-120.388243-120.388244V602.141197h842.917684v180.682355c-0.09999 66.393516-53.894737 120.288253-120.388244 120.388244z" fill="#101D37" p-id="14341"></path><path d="M210.42945 662.435309c-33.296748 0-60.194122 26.997364-60.194121 60.194122 0 33.296748 26.997364 60.194122 60.194121 60.194121 33.296748 0 60.194122-26.997364 60.194122-60.194121 0-33.296748-26.997364-60.194122-60.194122-60.194122zM812.570647 662.435309c-33.296748 0-60.194122 26.997364-60.194121 60.194122 0 33.296748 26.997364 60.194122 60.194121 60.194121 33.296748 0 60.194122-26.997364 60.194122-60.194121s-26.997364-60.194122-60.194122-60.194122z" fill="#101D37" p-id="14342"></path></svg>