<?xml version="1.0" standalone="no"?><!DOCTYPE svg PUBLIC "-//W3C//DTD SVG 1.1//EN" "http://www.w3.org/Graphics/SVG/1.1/DTD/svg11.dtd"><svg t="1612443831057" class="icon" viewBox="0 0 1024 1024" version="1.1" xmlns="http://www.w3.org/2000/svg" p-id="9464" xmlns:xlink="http://www.w3.org/1999/xlink" width="48" height="48"><defs><style type="text/css"></style></defs><path d="M405.8 394.8h54.1c13.6 0 24.7 8.8 24.7 19.7 0 10.8-11 19.7-24.7 19.7h-54.1c-13.5 0-24.6-8.8-24.6-19.7 0-10.9 11-19.7 24.6-19.7z m137.8 0h54.1c13.6 0 24.7 8.8 24.7 19.7 0 10.8-11 19.7-24.7 19.7h-54.1c-13.6 0-24.6-8.8-24.6-19.7 0-10.9 11-19.7 24.6-19.7z m137.6 0h54.1c13.6 0 24.7 8.8 24.7 19.7 0 10.8-11 19.7-24.7 19.7h-54.1c-13.6 0-24.6-8.8-24.6-19.7 0.1-10.9 11.1-19.7 24.6-19.7z m137.7 0H873c13.6 0 24.7 8.8 24.7 19.7 0 5.2-2.6 10.2-7.3 13.9-5 3.8-11.1 5.9-17.4 5.8h-54.1c-13.6 0-24.6-8.8-24.6-19.7 0.2-10.9 11.2-19.7 24.6-19.7z m0 0" p-id="9465"></path><path d="M284.9 174.5L224 159.7c-2.6-0.6-5.2-1-8-1-46.3 0-98.3 95.6-98.3 221.3 0 125.7 52 221.3 98.3 221.3 17.3 0 37.7-14.6 56.4-45.3l91.2-149.6V850l47.7-33.4c24.7-18.3 58.5-17.9 82.9 0.8l49.2 37.8 49.2-37.8c24.7-19.1 59.2-19.1 84 0l49.2 37.8 49.2-37.8c24.4-18.7 58.1-19.1 82.9-0.8l56.7 40.5V375.6c-1.2-124-52.8-216.4-98.3-216.4H284.9v15.3z m-49.2-62.6l0.5-2.4H816c80.6 0 146.1 118 147.6 265.6v506.7c0 20-16.1 36.3-36.1 36.3-7.5 0-14.8-2.3-20.9-6.6l-78.7-54.8c-7.1-5.4-17-5.4-24 0l-55 42.2c-14.1 10.9-33.9 10.9-48 0L646 856.6c-7.1-5.5-17-5.5-24 0l-54.9 42.2c-14.1 10.9-33.9 10.9-48 0l-55-42.2c-7.1-5.4-17-5.4-24 0l-86.2 60.3c-11.4 7.9-26.9 5.2-34.9-6.2-2.9-4.2-4.5-9.2-4.5-14.2V581.7c-2.4 3.9-4.9 7.8-7.5 11.5l-41.6-11.5v53.6c-14.5 9.8-31.6 15.1-49.2 15.4-81.7-0.2-147.8-121.2-147.8-270.7 0-137 55.7-250.8 127.9-268.1h39.4z m0 0" p-id="9466"></path><path d="M216 601.3h147.6v49.2H216z" p-id="9467"></path><path d="M216 601.3c46.3 0 98.3-95.5 98.3-221.3 0-125.8-52-221.3-98.3-221.3s-98.3 95.6-98.3 221.3c0 125.8 52 221.3 98.3 221.3z m0 49.2c-81.5 0-147.6-121.1-147.6-270.6 0-149.3 66.1-270.5 147.6-270.5S363.6 230.5 363.6 380c0 149.5-66.1 270.5-147.6 270.5z m0 0" p-id="9468"></path><path d="M221.4 452.1c9.9-20.9 14.8-44 14.2-67.1 0.6-23.2-4.3-46.2-14.2-67.1-1.6-2.9-3.4-5.7-5.4-8.3-2 2.6-3.8 5.5-5.4 8.4-10 20.9-14.8 43.8-14.2 67-0.5 23.2 4.4 46.2 14.2 67.1 1.6 2.9 3.4 5.7 5.4 8.3 2-2.6 3.8-5.4 5.4-8.3z m-5.4 60.8c-38.1 0-68.9-57.3-68.9-127.9 0-70.5 30.8-127.9 68.9-127.9 38.1 0 68.9 57.3 68.9 127.9 0 70.6-30.8 127.9-68.9 127.9z m0 0" p-id="9469"></path></svg>