<?xml version="1.0" standalone="no"?><!DOCTYPE svg PUBLIC "-//W3C//DTD SVG 1.1//EN" "http://www.w3.org/Graphics/SVG/1.1/DTD/svg11.dtd"><svg t="1612450330974" class="icon" viewBox="0 0 1024 1024" version="1.1" xmlns="http://www.w3.org/2000/svg" p-id="12064" xmlns:xlink="http://www.w3.org/1999/xlink" width="48" height="48"><defs><style type="text/css"></style></defs><path d="M388.254 960.87h0.011c-33.577 0-64.377-7.864-91.566-23.399-29.041-16.59-51.697-42.157-70.884-71.577-2.559-4.605-2.815-5.116-5.396-9.841-28.963-53.004 3.577-136.895 82.809-199.291 43.186-33.998 90.93-53.493 131.004-53.493 29.785 0 53.894 10.921 68.49 30.894 3.125 2.046 8.34 4.717 12.616 4.717 1.226 0 3.78 0 7.604-4.329 0.25-0.259 0.496-0.518 0.746-0.8 22.309-28.933 42.927-60.088 61.328-92.62 16.902-29.904 31.863-60.823 44.478-91.974 1.746-9.848 0.432-14.758-0.69-16.138-0.807-0.991-3.208-1.638-3.23-1.638-21.836-0.516-41.344-10.34-56.867-28.396-29.215-33.997-41.636-93.764-33.212-159.886C548.4 141.729 603.997 65.288 664.819 65.288c0.193 0 1.529 0.021 1.732 0.021a64.56 64.56 0 0 1 8.479 0.776c37.336-1.659 71.68 6.118 101.531 23.16 138.168 78.942 141.076 327.055 6.635 564.846C679.435 837.59 520.724 960.87 388.254 960.87z m45.978-307.231c-28.56 0-65.875 15.963-99.84 42.7-59.228 46.624-85.36 107.911-71.994 132.97 2.046 3.838 3.481 6.243 4.605 8.187 13.303 23.025 33.208 43.957 54.687 56.24 19.477 11.139 41.873 16.76 66.563 16.76 113.1 0 257.462-115.629 351.085-281.204 116.592-206.206 122.194-433.485 12.227-496.31-22.063-12.58-48.089-18.14-76.539-16.439-2.088 0.108-4.179-0.02-6.224-0.409-1.142-0.236-2.306-0.43-3.492-0.474-29.914 0-70.095 57.225-79.844 133.817-6.454 50.631 1.96 98.007 21.437 120.673 9.134 10.622 16.88 10.794 19.421 10.86 2.188 0 25.778 0.732 41.636 20.316 12.097 14.932 15.621 35.162 10.471 60.089a25.686 25.686 0 0 1-1.292 4.31c-13.64 33.933-29.883 67.65-48.284 100.205-20.08 35.505-42.669 69.483-67.156 101.002a25.57 25.57 0 0 1-3.62 3.793c-11.914 12.13-26.618 18.527-42.745 18.527-25.573 0-45.415-16.546-47.594-18.443a25.003 25.003 0 0 1-4.857-5.688c-5.933-9.501-18.859-11.482-28.65-11.482z" fill="" p-id="12065"></path><path d="M354.774 483.993c-12.033 0-22.72-8.597-24.971-20.854-4.255-23.204 0.787-46.688 14.187-66.123 13.412-19.413 33.579-32.467 56.792-36.712 13.834-2.521 27.05 6.614 29.581 20.425 2.534 13.81-6.613 27.06-20.423 29.579-9.856 1.81-18.422 7.347-24.109 15.6-5.699 8.229-7.831 18.204-6.033 28.073 2.542 13.81-6.604 27.037-20.414 29.58-1.54 0.28-3.093 0.432-4.61 0.432z" fill="" p-id="12066"></path><path d="M268.883 482.16c-12.033 0-22.718-8.574-24.959-20.832-15.448-84.2 40.484-165.25 124.68-180.677 13.767-2.52 27.05 6.615 29.582 20.423 2.531 13.79-6.614 27.042-20.414 29.561-56.62 10.385-94.237 64.895-83.852 121.514 2.531 13.811-6.615 27.06-20.426 29.582-1.54 0.28-3.09 0.43-4.61 0.43z" fill="" p-id="12067"></path><path d="M170.499 509.91c-12.032 0-22.72-8.572-24.97-20.832-12.841-70.042 2.359-140.884 42.809-199.484 40.44-58.603 101.284-97.944 171.326-110.786 13.778-2.52 27.039 6.614 29.58 20.425 2.532 13.81-6.613 27.038-20.423 29.581-56.674 10.383-105.915 42.227-138.653 89.648-32.727 47.442-45.03 104.773-34.645 161.458 2.531 13.79-6.603 27.04-20.413 29.583a25.88 25.88 0 0 1-4.611 0.407z" fill="" p-id="12068"></path></svg>